# xmcd CD database file
#
# Track frame offsets:
#	150
#	14030
#	32025
#	67615
#	82852
#	99585
#	117055
#	133455
#	145340
#	166007
#
# Disc length: 2408 seconds
#
# Revision: 1
# Processed by: cddbd v1.4PL0 Copyright (c) Steve Scherf et al.
# Submitted via: CDex 1.40Release
#
DISCID=7c09660a
DTITLE=Jimmie Stagger Band - Cruel Hearted Papa
DYEAR=1900
DGENRE=Blues
TTITLE0=Cruel Hearted Papa
TTITLE1=For The Love Of A Womna
TTITLE2=Kind Hearted Woman
TTITLE3=Somebody's Gotta Do It.
TTITLE4=Brand New Mustang
TTITLE5=Nightcrawler Blues
TTITLE6=Save Me The Gravy
TTITLE7=Things Have Changed
TTITLE8=Little Cabin
TTITLE9=Roadrunner
EXTD=ID3G: 0
EXTT0=
EXTT1=
EXTT2=
EXTT3=
EXTT4=
EXTT5=
EXTT6=
EXTT7=
EXTT8=
EXTT9=
PLAYORDER=
